PathFileType	4	(X/Y/Z)	C:\Users\WrightLab\Desktop\Jo\P1.2Trial5.trc
DataRate	CameraRate	NumFrames	NumMarkers	Units	OrigDataRate	OrigDataStartFrame	OrigNumFrames
100.00	100.00	       15	19	mm	100.00	546	       872
Frame#	Time	Headset_Front			Headset_Back			Headset_Left			Headset_Right			Left_Shoulder			Right_Shoulder			Sternum			C7			Left Elbow			Right Elbow			Left Wrist			Right Wrist			Left ASIS			Right ASIS			S2			Left Knee			Right Knee			Left Ankle			Right Ankle			
		X1	Y1	Z1	X2	Y2	Z2	X3	Y3	Z3	X4	Y4	Z4	X5	Y5	Z5	X6	Y6	Z6	X7	Y7	Z7	X8	Y8	Z8	X9	Y9	Z9	X10	Y10	Z10	X11	Y11	Z11	X12	Y12	Z12	X13	Y13	Z13	X14	Y14	Z14	X15	Y15	Z15	X16	Y16	Z16	X17	Y17	Z17	X18	Y18	Z18	X19	Y19	Z19	

546	5.450	-270.24274	1228.73596	-155.40050	-353.11502	1485.29370	-7.42309	-425.65366	1361.02502	-100.05293	-200.97684	1326.57434	-63.50269	-531.89429	1208.91064	-26.13446	-162.68651	1240.92676	127.41525	-321.87704	1118.42810	-0.54867	-396.22464	1326.71741	151.63300	-518.83081	928.50720	-68.92804	-94.04289	1020.02740	247.51668	-339.23474	810.77911	-202.05531	-30.46440	756.56281	194.85789	-442.64270	972.12286	329.16199	-227.78790	827.52576	133.12685	-490.55368	840.08032	35.95581	-565.24139	438.41400	105.71443	-233.01407	442.04279	138.97185	-649.99402	114.98060	235.47437	-215.46126	103.59482	174.56187	
547	5.460	-267.85797	1227.97449	-156.89677	-349.49725	1484.76489	-10.17311	-422.82169	1360.34338	-101.60539	-198.69273	1325.91223	-64.80616	-529.54205	1209.39258	-27.83720	-159.89516	1240.62500	122.11924	-319.51291	1118.89929	-2.18255	-392.52716	1326.77954	150.29330	-517.04968	929.07526	-70.04285	-91.14687	1018.56348	243.81242	-338.38196	811.52881	-204.04762	-26.07656	756.04901	188.77469	-439.34851	972.05963	328.47476	-226.14351	826.82678	132.50465	-489.62683	840.20422	34.97464	-563.40460	438.74176	105.50375	-231.41599	441.58932	138.38322	-649.12250	114.86784	234.98509	-215.46126	103.59482	174.56187	
548	5.470	-265.38031	1226.72705	-158.35626	-346.08578	1484.54919	-12.15406	-419.85294	1360.27759	-103.25823	-194.80917	1324.99170	-66.78597	-527.03473	1209.80591	-27.48054	-156.69345	1240.22424	121.71381	-317.77759	1118.58472	-3.77855	-389.45798	1326.60449	149.11458	-515.56635	929.01007	-70.05396	-88.17648	1017.38354	240.68944	-337.56610	812.28027	-205.91171	-22.25450	755.40771	183.45267	-436.55096	972.84576	327.56165	-223.87921	826.67975	129.09772	-487.93524	840.61932	34.19681	-562.02325	438.78769	105.53522	-230.66081	441.05371	138.03989	-648.49835	115.60921	234.74257	-216.25021	102.94620	174.12112	
549	5.480	-263.03134	1226.08069	-159.39447	-343.10934	1484.26355	-14.02871	-417.17679	1359.80542	-104.54701	-192.09729	1324.38367	-67.65374	-525.08240	1210.22400	-27.70908	-153.87468	1239.46460	122.19251	-315.51132	1117.70593	-5.30188	-386.84760	1327.12109	147.96437	-513.27228	929.78363	-70.73067	-84.96947	1016.91388	238.16179	-337.11230	813.46027	-208.34926	-18.83201	755.42957	177.77676	-433.35312	973.25403	326.81433	-220.17694	825.97095	127.52742	-486.67172	840.72369	32.97105	-560.64166	439.35489	106.11713	-230.05624	440.58350	136.49077	-648.12543	116.17324	234.75226	-217.02574	101.91022	173.58888	
550	5.490	-260.81729	1224.72693	-160.02431	-339.75433	1484.19739	-16.42662	-414.52979	1359.44067	-106.54382	-189.59554	1322.66162	-68.96659	-523.23163	1210.52844	-29.02064	-151.24272	1239.13489	120.29552	-313.69330	1118.45435	-6.31264	-383.94604	1327.49414	146.56854	-512.24451	929.55371	-70.52428	-82.13773	1015.40967	234.40536	-337.09567	814.33331	-209.47235	-17.05767	754.79413	172.62889	-430.12360	973.13837	326.33099	-219.61557	825.64398	127.02663	-485.17746	840.42114	32.84695	-559.37836	439.90085	105.89006	-229.19104	440.07663	136.69414	-647.56927	117.18195	235.78841	-218.43138	99.45108	174.05936	
551	5.500	-258.54166	1223.45996	-160.85825	-336.50534	1483.61108	-18.31071	-411.86743	1359.02039	-107.43541	-187.49278	1322.44189	-71.03699	-521.27637	1210.75696	-29.66993	-148.77455	1239.42969	116.77192	-311.52188	1118.17773	-8.67411	-381.14432	1327.76587	145.14661	-511.26657	929.76306	-70.76814	-79.58227	1015.64130	233.02974	-337.03302	815.40613	-211.77020	-13.59286	754.55566	168.05606	-427.44919	973.84338	326.02972	-217.69881	825.40466	123.91125	-484.09503	840.89001	32.27024	-557.98273	440.22406	106.17088	-228.66957	439.58456	136.56361	-647.26019	117.74493	235.76352				
552	5.510	-256.84100	1222.36719	-162.31354	-333.03973	1483.77808	-20.39667	-409.43765	1358.57434	-108.59035	-184.99077	1320.72852	-71.99450	-519.39111	1210.73035	-28.89599	-146.26036	1238.11328	119.06284	-310.37061	1118.21240	-9.96025	-377.85223	1327.74695	144.62646	-510.38214	930.47009	-71.41760	-76.89052	1014.73547	229.54709	-337.35342	817.09546	-213.66020	-12.81560	753.80621	163.22952	-424.24295	973.78809	325.26410	-217.36470	824.66101	123.59934	-482.52814	840.89673	32.77035	-556.58875	440.25253	105.91380	-227.37605	439.06323	135.59201	-646.69348	118.51286	235.58472				
553	5.520	-254.87308	1221.07117	-163.02658	-330.31046	1483.09106	-22.12036	-407.04706	1358.22559	-110.42009	-182.46730	1319.74341	-74.04434	-517.71759	1211.62024	-29.14270	-143.56892	1238.16748	115.31125	-308.33167	1117.70691	-11.10298	-374.75900	1327.59424	143.38954	-511.29916	931.45392	-72.62563	-74.36522	1014.72693	227.97723	-337.99634	818.32751	-215.44876	-10.25292	753.58685	159.59550	-420.98257	973.84943	324.66989	-213.79956	825.82776	119.14787	-481.92441	840.83398	32.76625	-555.63977	440.67853	105.84404	-226.67656	438.46146	134.62134	-646.44275	119.06804	235.55022				
554	5.530	-253.46024	1220.21790	-163.73158	-327.26584	1482.73499	-24.47886	-404.77835	1357.71863	-111.17993	-181.32988	1318.47742	-74.85886	-516.71143	1211.67334	-29.05685	-141.89720	1238.62976	108.99108	-306.92242	1117.82739	-12.47954	-372.59357	1327.92542	142.27570	-510.79041	931.86346	-72.17467	-72.63216	1013.54199	224.85297	-339.02106	819.93323	-217.89502	-9.66374	751.96472	154.64073	-418.45825	974.64740	324.38300	-212.77538	825.47711	117.65306	-480.67157	840.71948	32.52457	-554.74554	441.19211	105.82534	-226.27954	437.84082	134.35568	-646.17407	119.60466	235.51559				
555	5.540	-251.45378	1218.25281	-164.49860	-324.97211	1482.68970	-26.11195	-402.61987	1357.42358	-112.56059	-179.31427	1317.47266	-76.38805	-515.40826	1212.09094	-29.25298	-139.29759	1237.89661	109.53294	-306.29724	1116.50916	-10.82047	-370.39392	1327.97412	141.45798	-510.70010	932.31763	-71.88282	-69.66267	1013.21356	222.67445	-339.63327	821.44153	-219.48582	-7.40769	752.43793	151.62410	-415.05469	975.12311	323.31229	-211.00882	825.26855	115.52810	-479.33902	840.53479	32.44335	-553.46234	441.14682	105.65359	-225.73425	437.13107	133.69711	-645.95972	119.97929	235.43367				
556	5.550	-250.17291	1217.85754	-165.17403	-321.95514	1482.61548	-27.09221	-400.56122	1357.11963	-113.31712	-176.97322	1316.99011	-77.22816	-513.82062	1212.97827	-28.89022	-136.63863	1236.88123	107.71139	-305.08875	1116.73938	-12.13178	-367.21994	1327.96948	140.54080	-510.71768	932.60309	-71.82191	-67.95250	1011.96259	219.98230	-340.97702	822.62170	-221.88127	-6.87883	751.44525	148.42496	-412.69653	974.98395	322.60587	-209.16762	825.41846	112.99207	-478.31229	840.55725	32.73907	-552.56775	441.25436	106.05264	-224.96733	437.08975	133.47823	-645.72662	120.39009	235.07161				
557	5.560	-249.05310	1217.02063	-166.01999	-319.37698	1481.79065	-29.28325	-398.57254	1356.82715	-114.67916	-174.35100	1316.19873	-78.61020	-512.76703	1213.04285	-28.30371	-134.58606	1236.07654	107.62194	-304.00476	1116.65063	-12.56375	-364.68295	1328.16528	139.96198	-510.87674	932.88818	-71.50437	-65.58034	1011.85358	218.65016	-342.17249	824.96045	-223.57950	-5.31017	751.45093	144.60555	-410.16614	975.04047	322.07330	-208.29294	824.57819	112.72292	-476.84738	840.14032	33.27427	-551.96039	441.67584	106.29252	-224.20201	436.50934	133.38289	-645.34235	121.07472	234.55701				
558	5.570	-247.52075	1215.72461	-166.09435	-317.57220	1482.06091	-31.25332	-396.67676	1356.67517	-115.88576	-173.29283	1315.00977	-80.06641	-511.67889	1213.70056	-28.35793	-132.87953	1236.10388	103.41061	-302.91257	1116.56628	-14.09238	-362.86829	1328.17676	139.46260	-510.98434	933.71753	-71.75344	-63.52246	1011.48700	216.58859	-343.49454	826.05652	-224.99632	-4.47734	750.73462	141.91998	-408.17371	975.21631	321.38776	-208.68681	823.63611	113.01140	-475.85172	840.11340	33.38461	-551.40155	441.93527	106.35136	-223.41853	435.67877	132.38702	-645.15833	121.69893	234.24878				
559	5.580	-246.18140	1215.12134	-167.31219	-315.11157	1481.69299	-32.01483	-394.91537	1356.52039	-116.40338	-170.68044	1314.55969	-81.57070	-510.59610	1214.78735	-28.53012	-130.34311	1235.39941	102.09082	-301.94882	1115.58105	-14.27364	-360.27179	1328.75452	138.78189	-511.24026	934.45880	-71.90559	-61.36083	1010.25421	214.60498	-344.55588	827.74878	-227.84387	-3.54499	749.98218	139.78166	-405.56152	975.66656	321.28690	-207.52132	823.60291	111.50578	-474.89114	840.08240	33.15271	-550.74805	442.44919	106.46271	-222.82632	435.18774	132.03441	-644.86145	122.33533	233.91071				
560	5.590	-245.00444	1214.62000	-168.44676	-313.30469	1481.56421	-33.76233	-393.37860	1356.30103	-117.12931	-169.60258	1313.33667	-82.96708	-509.95615	1215.11304	-28.24558	-129.16768	1234.42004	100.89832	-301.16074	1115.55640	-14.91361	-357.75748	1328.94019	138.08395	-511.65079	934.80408	-71.54833	-58.24540	1010.87622	213.62469	-345.42450	828.38171	-228.00516	-3.42439	748.79535	136.53568	-403.58856	975.67377	320.27286	-206.14156	822.96204	110.63818	-473.89539	840.22992	32.61746	-550.18134	442.75912	106.40348	-222.56010	435.05380	131.88866	-644.69421	122.76765	233.52457				
